<svg 
  xmlns="http://www.w3.org/2000/svg" 
  xmlns:xlink="http://www.w3.org/1999/xlink" 
  viewBox="0 0 810 600" 
  preserveAspectRatio="xMidYMid meet" 
  class="w-full h-auto"
>
  <defs>
    <clipPath id="d86459e844">
      <path d="M 0 113.796875 L 439.324219 113.796875 L 439.324219 553.121094 L 0 553.121094 Z M 0 113.796875 " clip-rule="nonzero"/>
    </clipPath>
    <clipPath id="aa275702d9">
      <path d="M 0 113.796875 L 347 113.796875 L 347 553.121094 L 0 553.121094 Z M 0 113.796875 " clip-rule="nonzero"/>
    </clipPath>
  </defs>

  <g clip-path="url(#d86459e844)">
    <path fill="#ffeada" d="M 0.632812 109.09375 C -2.5 153.589844 0.746094 203.324219 20.75 244.433594 C 42.035156 288.171875 90.484375 296.664062 120.425781 331.46875 C 163.890625 381.988281 111.449219 431.230469 201.449219 484.40625 C 234.136719 503.722656 270.488281 519.480469 308.226562 525.351562 C 310.988281 525.78125 313.753906 526.210938 316.523438 526.5625 C 319.050781 526.882812 321.585938 527.148438 324.121094 527.371094 C 327.1875 527.648438 330.257812 527.886719 333.335938 527.984375 C 365.441406 528.980469 412.492188 516.257812 434.734375 549.425781 C 435.152344 550.046875 443.582031 560.746094 442.671875 563.394531 C 434.511719 587.171875 260.507812 566.984375 231.5 568.320312 C 171.65625 571.074219 113.273438 578.226562 53.183594 576.199219 C -24.964844 573.558594 -27.140625 552.996094 -23.410156 474.609375 C -21.734375 439.308594 -26.039062 397.40625 -17.292969 363.78125 " fill-opacity="1" fill-rule="evenodd"/>
  </g>
  <g clip-path="url(#aa275702d9)">
    <path fill="#fcdbc0" d="M -15.550781 113.554688 C -22.363281 176.566406 -44.511719 283.296875 15.675781 328.921875 C 41.339844 348.375 71.445312 362.605469 88.921875 391.09375 C 111.246094 427.472656 111.167969 472.992188 147.96875 500.511719 C 195.484375 536.046875 344.816406 540.367188 346.03125 561.515625 C 347.449219 586.175781 224.863281 581.695312 211.253906 581.636719 C 181.222656 581.503906 0.0546875 581.507812 -15.636719 550.753906 C -24.480469 533.417969 -15.855469 508.84375 -16.660156 490.625 " fill-opacity="1" fill-rule="evenodd"/>
  </g>
</svg>
