<svg 
  xmlns="http://www.w3.org/2000/svg" 
  xmlns:xlink="http://www.w3.org/1999/xlink" 
  viewBox="0 0 810 600" 
  preserveAspectRatio="xMidYMid meet" 
  class="w-full h-auto"
>
  <defs>
    <clipPath id="ac4bae148c">
      <path d="M 425.589844 222.746094 L 802.792969 222.746094 L 802.792969 599.949219 L 425.589844 599.949219 Z M 425.589844 222.746094 " clip-rule="nonzero"/>
    </clipPath>
    <clipPath id="2edd68240f">
      <path d="M 505 222.746094 L 802.792969 222.746094 L 802.792969 599.949219 L 505 599.949219 Z M 505 222.746094 " clip-rule="nonzero"/>
    </clipPath>
  </defs>
  
  <g clip-path="url(#ac4bae148c)">
    <path fill="#ffeada" d="M 802.296875 218.660156 C 804.988281 256.875 802.199219 299.589844 785.019531 334.894531 C 766.738281 372.457031 725.132812 379.75 699.414062 409.640625 C 662.085938 453.027344 707.125 495.316406 629.832031 540.984375 C 601.761719 557.574219 570.539062 571.105469 538.132812 576.148438 C 535.757812 576.519531 533.382812 576.886719 531.003906 577.1875 C 528.835938 577.464844 526.660156 577.691406 524.480469 577.882812 C 521.847656 578.121094 519.210938 578.328125 516.566406 578.410156 C 488.996094 579.261719 448.585938 568.339844 429.484375 596.824219 C 429.128906 597.355469 421.886719 606.542969 422.667969 608.820312 C 429.675781 629.242188 579.113281 611.902344 604.027344 613.050781 C 655.417969 615.414062 705.558594 621.558594 757.167969 619.816406 C 824.28125 617.546875 826.148438 599.890625 822.945312 532.570312 C 821.507812 502.253906 825.203125 466.265625 817.691406 437.390625 " fill-opacity="1" fill-rule="evenodd"/>
  </g>
  <g clip-path="url(#2edd68240f)">
    <path fill="#fcdbc0" d="M 816.195312 222.492188 C 822.046875 276.609375 841.066406 368.269531 789.375 407.453125 C 767.335938 424.160156 741.480469 436.378906 726.472656 460.84375 C 707.300781 492.089844 707.367188 531.183594 675.765625 554.816406 C 634.957031 585.335938 506.707031 589.046875 505.664062 607.207031 C 504.445312 628.386719 609.722656 624.535156 621.414062 624.488281 C 647.207031 624.371094 802.792969 624.375 816.269531 597.964844 C 823.863281 583.074219 816.457031 561.96875 817.148438 546.324219 " fill-opacity="1" fill-rule="evenodd"/>
  </g>
</svg>
